<svg width="70" height="18" viewBox="0 0 70 18" fill="none" xmlns="http://www.w3.org/2000/svg">
<path d="M0.988037 2.87868C0.988037 1.6943 1.94817 0.734161 3.13256 0.734161H8.56545C8.86183 0.734161 9.14499 0.856837 9.3477 1.07306L11.7106 3.59352H0.988037V2.87868Z" fill="#3538CD"/>
<path d="M0.988037 3.59352H20.2887C21.4731 3.59352 22.4332 4.55366 22.4332 5.73804V15.7458C22.4332 16.9302 21.4731 17.8903 20.2887 17.8903H3.13256C1.94817 17.8903 0.988037 16.9302 0.988037 15.7458V3.59352Z" fill="#444CE7"/>
<path d="M9.56612 10.7419C9.56612 11.7289 8.766 12.529 7.77902 12.529C6.79203 12.529 5.99192 11.7289 5.99192 10.7419C5.99192 9.75493 6.79203 8.95482 7.77902 8.95482C8.766 8.95482 9.56612 9.75493 9.56612 10.7419Z" fill="white"/>
<path d="M13.4977 10.7419C13.4977 11.7289 12.6976 12.529 11.7106 12.529C10.7236 12.529 9.92354 11.7289 9.92354 10.7419C9.92354 9.75493 10.7236 8.95482 11.7106 8.95482C12.6976 8.95482 13.4977 9.75493 13.4977 10.7419Z" fill="white"/>
<path d="M17.4294 10.7419C17.4294 11.7289 16.6292 12.529 15.6423 12.529C14.6553 12.529 13.8552 11.7289 13.8552 10.7419C13.8552 9.75493 14.6553 8.95482 15.6423 8.95482C16.6292 8.95482 17.4294 9.75493 17.4294 10.7419Z" fill="white"/>
<path d="M28.7524 9.16141C29.1032 9.16141 29.4215 9.10994 29.7074 9.007C29.9972 8.90407 30.2126 8.80304 30.3537 8.70391L31.0857 10.1565C30.9065 10.309 30.5996 10.4634 30.1649 10.6197C29.7341 10.776 29.2214 10.8541 28.6266 10.8541C28.07 10.8541 27.5477 10.7569 27.0597 10.5625C26.5717 10.3681 26.1409 10.0955 25.7672 9.74472C25.3974 9.39016 25.1058 8.9765 24.8923 8.50376C24.6826 8.0272 24.5778 7.51061 24.5778 6.95398C24.5778 6.39736 24.6826 5.88077 24.8923 5.40421C25.102 4.92384 25.3917 4.50637 25.7615 4.15181C26.1351 3.79725 26.566 3.52275 27.054 3.32832C27.5458 3.13007 28.07 3.03094 28.6266 3.03094C29.2214 3.03094 29.7341 3.1091 30.1649 3.26541C30.5996 3.42172 30.9065 3.57613 31.0857 3.72863L30.3537 5.18118C30.2126 5.07824 29.9972 4.97721 29.7074 4.87809C29.4215 4.77515 29.1032 4.72368 28.7524 4.72368C28.3635 4.72368 28.0242 4.78468 27.7345 4.90668C27.4447 5.02487 27.2026 5.1888 27.0082 5.39849C26.8138 5.60818 26.6689 5.84455 26.5736 6.10761C26.4783 6.37067 26.4306 6.64708 26.4306 6.93683C26.4306 7.23039 26.4783 7.51061 26.5736 7.77748C26.6689 8.04054 26.8138 8.27691 27.0082 8.4866C27.2026 8.69629 27.4447 8.86213 27.7345 8.98413C28.0242 9.10232 28.3635 9.16141 28.7524 9.16141Z" fill="#011023"/>
<path d="M35.5466 10.7169V9.95631C35.5123 10.0326 35.4246 10.1431 35.2836 10.288C35.1463 10.4329 34.9633 10.5644 34.7346 10.6826C34.5058 10.797 34.2389 10.8541 33.9339 10.8541C33.4764 10.8541 33.0761 10.7436 32.733 10.5225C32.3899 10.2975 32.123 9.99825 31.9324 9.62463C31.7418 9.24719 31.6464 8.82972 31.6464 8.37223C31.6464 7.91473 31.7418 7.49917 31.9324 7.12554C32.123 6.74811 32.3899 6.44692 32.733 6.22199C33.0761 5.99705 33.4764 5.88458 33.9339 5.88458C34.2275 5.88458 34.4848 5.93224 34.706 6.02755C34.9271 6.11905 35.1063 6.22961 35.2435 6.35924C35.3808 6.48505 35.4761 6.60133 35.5295 6.70808V6.02183H37.2565V10.7169H35.5466ZM33.3506 8.37223C33.3506 8.58572 33.4002 8.77825 33.4993 8.94982C33.5984 9.11757 33.73 9.2491 33.8939 9.34441C34.0617 9.43972 34.2466 9.48738 34.4486 9.48738C34.6583 9.48738 34.8432 9.43972 35.0033 9.34441C35.1635 9.2491 35.2893 9.11757 35.3808 8.94982C35.4761 8.77825 35.5237 8.58572 35.5237 8.37223C35.5237 8.15873 35.4761 7.9681 35.3808 7.80035C35.2893 7.62879 35.1635 7.49536 35.0033 7.40004C34.8432 7.30092 34.6583 7.25136 34.4486 7.25136C34.2466 7.25136 34.0617 7.30092 33.8939 7.40004C33.73 7.49536 33.5984 7.62879 33.4993 7.80035C33.4002 7.9681 33.3506 8.15873 33.3506 8.37223Z" fill="#011023"/>
<path d="M38.0051 6.02183H42.6544L40.3098 9.50453H42.4714V10.7169H37.6277L39.9666 7.22848H38.0051V6.02183Z" fill="#011023"/>
<path d="M46.6829 10.7169V9.95631C46.6486 10.0326 46.5609 10.1431 46.4199 10.288C46.2826 10.4329 46.0996 10.5644 45.8709 10.6826C45.6421 10.797 45.3752 10.8541 45.0702 10.8541C44.6128 10.8541 44.2124 10.7436 43.8693 10.5225C43.5262 10.2975 43.2593 9.99825 43.0687 9.62463C42.8781 9.24719 42.7828 8.82972 42.7828 8.37223C42.7828 7.91473 42.8781 7.49917 43.0687 7.12554C43.2593 6.74811 43.5262 6.44692 43.8693 6.22199C44.2124 5.99705 44.6128 5.88458 45.0702 5.88458C45.3638 5.88458 45.6212 5.93224 45.8423 6.02755C46.0634 6.11905 46.2426 6.22961 46.3798 6.35924C46.5171 6.48505 46.6124 6.60133 46.6658 6.70808V6.02183H48.3928V10.7169H46.6829ZM44.4869 8.37223C44.4869 8.58572 44.5365 8.77825 44.6356 8.94982C44.7347 9.11757 44.8663 9.2491 45.0302 9.34441C45.198 9.43972 45.3829 9.48738 45.5849 9.48738C45.7946 9.48738 45.9795 9.43972 46.1396 9.34441C46.2998 9.2491 46.4256 9.11757 46.5171 8.94982C46.6124 8.77825 46.6601 8.58572 46.6601 8.37223C46.6601 8.15873 46.6124 7.9681 46.5171 7.80035C46.4256 7.62879 46.2998 7.49536 46.1396 7.40004C45.9795 7.30092 45.7946 7.25136 45.5849 7.25136C45.3829 7.25136 45.198 7.30092 45.0302 7.40004C44.8663 7.49536 44.7347 7.62879 44.6356 7.80035C44.5365 7.9681 44.4869 8.15873 44.4869 8.37223Z" fill="#011023"/>
<path d="M25.5857 14.7028C25.6943 14.7028 25.7892 14.6881 25.8702 14.6585C25.9522 14.628 26.0117 14.598 26.0489 14.5685L26.1776 14.8258C26.1347 14.8639 26.0599 14.9025 25.9531 14.9416C25.8464 14.9807 25.7186 15.0002 25.57 15.0002C25.4308 15.0002 25.3012 14.9754 25.1811 14.9259C25.061 14.8763 24.9557 14.8077 24.8651 14.72C24.7746 14.6314 24.704 14.528 24.6535 14.4098C24.603 14.2916 24.5778 14.1634 24.5778 14.0252C24.5778 13.887 24.603 13.7583 24.6535 13.6392C24.704 13.52 24.7741 13.4161 24.8637 13.3275C24.9542 13.2389 25.0596 13.1698 25.1796 13.1202C25.3007 13.0697 25.4308 13.0444 25.57 13.0444C25.7186 13.0444 25.8464 13.064 25.9531 13.103C26.0599 13.1421 26.1347 13.1807 26.1776 13.2188L26.0489 13.4762C26.0117 13.4466 25.9522 13.4171 25.8702 13.3875C25.7892 13.357 25.6943 13.3418 25.5857 13.3418C25.4827 13.3418 25.3893 13.3589 25.3055 13.3933C25.2216 13.4276 25.1496 13.4757 25.0896 13.5377C25.0295 13.5996 24.9833 13.672 24.9509 13.755C24.9185 13.8369 24.9023 13.9256 24.9023 14.0209C24.9023 14.1172 24.9185 14.2067 24.9509 14.2897C24.9833 14.3726 25.0295 14.445 25.0896 14.507C25.1496 14.5689 25.2216 14.6171 25.3055 14.6514C25.3893 14.6857 25.4827 14.7028 25.5857 14.7028Z" fill="#344054"/>
<path d="M27.1133 13.7578C27.1914 13.7578 27.2677 13.774 27.342 13.8064C27.4164 13.8388 27.4774 13.8908 27.525 13.9623C27.5736 14.0328 27.5979 14.1248 27.5979 14.2382V14.9659H27.2905V14.294C27.2905 14.1882 27.2662 14.1105 27.2176 14.0609C27.17 14.0104 27.1066 13.9851 27.0275 13.9851C26.9751 13.9851 26.9246 13.9999 26.8759 14.0295C26.8273 14.059 26.7873 14.099 26.7558 14.1496C26.7253 14.2001 26.7101 14.2582 26.7101 14.324V14.9659H26.4027V12.9987H26.7101V13.9894C26.7187 13.957 26.7416 13.9232 26.7787 13.8879C26.8168 13.8517 26.865 13.8212 26.9231 13.7964C26.9813 13.7707 27.0446 13.7578 27.1133 13.7578Z" fill="#344054"/>
<path d="M28.7869 14.9659V14.7486C28.7793 14.7715 28.7574 14.8029 28.7211 14.843C28.6859 14.883 28.6373 14.9192 28.5753 14.9516C28.5143 14.984 28.4419 15.0002 28.358 15.0002C28.2484 15.0002 28.1497 14.974 28.0621 14.9216C27.9744 14.8692 27.9053 14.7963 27.8548 14.7028C27.8042 14.6094 27.779 14.5017 27.779 14.3797C27.779 14.2577 27.8042 14.15 27.8548 14.0566C27.9053 13.9632 27.9744 13.8903 28.0621 13.8379C28.1497 13.7845 28.2484 13.7578 28.358 13.7578C28.44 13.7578 28.511 13.7721 28.571 13.8007C28.6311 13.8293 28.6792 13.8622 28.7154 13.8994C28.7526 13.9365 28.7755 13.9689 28.7841 13.9966V13.7921H29.0871V14.9659H28.7869ZM28.0806 14.3797C28.0806 14.455 28.0973 14.5208 28.1307 14.577C28.164 14.6333 28.2074 14.6766 28.2608 14.7071C28.3151 14.7376 28.3733 14.7529 28.4352 14.7529C28.5019 14.7529 28.561 14.7372 28.6125 14.7057C28.6649 14.6743 28.7059 14.6309 28.7354 14.5756C28.7659 14.5194 28.7812 14.4541 28.7812 14.3797C28.7812 14.3054 28.7659 14.2406 28.7354 14.1853C28.7059 14.1291 28.6649 14.0852 28.6125 14.0538C28.561 14.0214 28.5019 14.0052 28.4352 14.0052C28.3733 14.0052 28.3151 14.0209 28.2608 14.0523C28.2074 14.0828 28.164 14.1262 28.1307 14.1824C28.0973 14.2387 28.0806 14.3044 28.0806 14.3797Z" fill="#344054"/>
<path d="M29.2445 13.7921H29.4646V13.3103H29.7677V13.7921H30.0579V14.0495H29.7677V14.5513C29.7677 14.6142 29.7782 14.6614 29.7992 14.6928C29.8211 14.7243 29.8521 14.74 29.8921 14.74C29.9255 14.74 29.9517 14.7338 29.9707 14.7214C29.9907 14.709 30.0027 14.7005 30.0065 14.6957L30.1194 14.9173C30.1137 14.923 30.097 14.9325 30.0694 14.9459C30.0417 14.9592 30.006 14.9716 29.9622 14.9831C29.9183 14.9945 29.8683 15.0002 29.812 15.0002C29.7129 15.0002 29.63 14.9707 29.5633 14.9116C29.4975 14.8525 29.4646 14.76 29.4646 14.6342V14.0495H29.2445V13.7921Z" fill="#344054"/>
<path d="M30.8649 14.4827C30.8649 14.4074 30.8787 14.3411 30.9064 14.284C30.935 14.2258 30.9717 14.1758 31.0165 14.1338C31.0613 14.0909 31.108 14.0552 31.1566 14.0266C31.2061 13.9971 31.2519 13.9742 31.2938 13.958C31.3358 13.9408 31.3682 13.9289 31.391 13.9222C31.3729 13.9099 31.3505 13.8898 31.3239 13.8622C31.2972 13.8346 31.271 13.8012 31.2452 13.7621C31.2195 13.7221 31.198 13.6782 31.1809 13.6306C31.1637 13.5829 31.1552 13.5334 31.1552 13.4819C31.1552 13.4018 31.1771 13.3289 31.2209 13.2632C31.2648 13.1974 31.3267 13.1445 31.4068 13.1045C31.4878 13.0644 31.5841 13.0444 31.6956 13.0444C31.8052 13.0444 31.8976 13.064 31.9729 13.103C32.0492 13.1412 32.1068 13.1936 32.1459 13.2603C32.185 13.3261 32.2045 13.4014 32.2045 13.4862C32.2045 13.5586 32.1883 13.623 32.1559 13.6792C32.1245 13.7345 32.0854 13.7826 32.0387 13.8236C31.992 13.8636 31.9458 13.897 31.9 13.9237C31.8543 13.9504 31.8176 13.9704 31.7899 13.9837L32.1531 14.3769C32.1759 14.355 32.2079 14.3197 32.2489 14.2711C32.2898 14.2215 32.3313 14.1639 32.3732 14.0981L32.5748 14.2754C32.5615 14.2982 32.5419 14.3278 32.5162 14.364C32.4905 14.3993 32.4624 14.435 32.4319 14.4712C32.4014 14.5065 32.3728 14.5361 32.3461 14.5599L32.7307 14.9659H32.3489L32.123 14.7243C32.0735 14.7691 32.0163 14.8129 31.9515 14.8558C31.8867 14.8978 31.8128 14.9325 31.7299 14.9602C31.6479 14.9869 31.5559 15.0002 31.454 15.0002C31.3453 15.0002 31.2462 14.9797 31.1566 14.9387C31.067 14.8968 30.996 14.8372 30.9436 14.76C30.8911 14.6828 30.8649 14.5904 30.8649 14.4827ZM31.5426 14.1052C31.5283 14.11 31.5073 14.1186 31.4797 14.131C31.453 14.1424 31.4235 14.1577 31.391 14.1767C31.3586 14.1948 31.3281 14.2177 31.2996 14.2454C31.271 14.272 31.2471 14.303 31.2281 14.3383C31.209 14.3735 31.1995 14.4136 31.1995 14.4584C31.1995 14.5165 31.2133 14.5651 31.2409 14.6042C31.2686 14.6433 31.3053 14.6723 31.351 14.6914C31.3977 14.7105 31.4482 14.72 31.5026 14.72C31.5617 14.72 31.6188 14.7095 31.6741 14.6886C31.7304 14.6676 31.7809 14.6423 31.8257 14.6128C31.8714 14.5823 31.9076 14.5527 31.9343 14.5241L31.5426 14.1052ZM31.6913 13.2803C31.6398 13.2803 31.596 13.2903 31.5598 13.3103C31.5235 13.3304 31.4959 13.3561 31.4768 13.3875C31.4578 13.419 31.4482 13.4514 31.4482 13.4848C31.4482 13.52 31.4568 13.5562 31.474 13.5934C31.4921 13.6306 31.5126 13.6654 31.5354 13.6978C31.5593 13.7302 31.5807 13.7574 31.5998 13.7793C31.6198 13.8002 31.6312 13.8122 31.6341 13.815C31.6513 13.8103 31.676 13.7998 31.7084 13.7836C31.7408 13.7674 31.7737 13.7459 31.8071 13.7192C31.8414 13.6916 31.8705 13.6587 31.8943 13.6206C31.9191 13.5815 31.9315 13.5362 31.9315 13.4848C31.9315 13.4266 31.9095 13.378 31.8657 13.3389C31.8219 13.2999 31.7637 13.2803 31.6913 13.2803Z" fill="#344054"/>
<path d="M34.1063 13.0444C34.2169 13.0444 34.3127 13.0573 34.3937 13.083C34.4757 13.1078 34.5405 13.1345 34.5881 13.1631C34.6358 13.1907 34.6644 13.2088 34.6739 13.2174L34.5238 13.4619C34.5095 13.4495 34.4838 13.4323 34.4466 13.4104C34.4104 13.3875 34.3656 13.3671 34.3122 13.3489C34.2598 13.3308 34.2012 13.3218 34.1364 13.3218C34.0392 13.3218 33.9619 13.3408 33.9048 13.379C33.8476 13.4161 33.819 13.4705 33.819 13.5419C33.819 13.5896 33.8342 13.6315 33.8647 13.6678C33.8952 13.704 33.9386 13.7378 33.9948 13.7693C34.052 13.8007 34.1202 13.8326 34.1993 13.8651C34.266 13.8927 34.3308 13.9241 34.3937 13.9594C34.4576 13.9947 34.5148 14.0361 34.5653 14.0838C34.6158 14.1315 34.6558 14.1867 34.6854 14.2496C34.7159 14.3125 34.7311 14.385 34.7311 14.467C34.7311 14.5527 34.7135 14.629 34.6782 14.6957C34.643 14.7615 34.5943 14.8172 34.5324 14.863C34.4704 14.9078 34.399 14.9421 34.3179 14.9659C34.2379 14.9888 34.1521 15.0002 34.0606 15.0002C33.9405 15.0002 33.8323 14.9859 33.7361 14.9573C33.6407 14.9278 33.5635 14.8973 33.5044 14.8658C33.4454 14.8334 33.411 14.8125 33.4015 14.8029L33.5602 14.547C33.5716 14.5565 33.5926 14.5708 33.6231 14.5899C33.6546 14.608 33.6932 14.6276 33.7389 14.6485C33.7847 14.6685 33.8352 14.6857 33.8905 14.7C33.9467 14.7133 34.0048 14.72 34.0649 14.72C34.1802 14.72 34.2674 14.6952 34.3265 14.6457C34.3856 14.5951 34.4152 14.5303 34.4152 14.4512C34.4152 14.3912 34.3961 14.3392 34.358 14.2954C34.3208 14.2506 34.2693 14.2101 34.2036 14.1739C34.1388 14.1376 34.0649 14.1019 33.982 14.0666C33.8971 14.0295 33.8185 13.9875 33.7461 13.9408C33.6746 13.8941 33.6169 13.8374 33.5731 13.7707C33.5292 13.703 33.5073 13.6211 33.5073 13.5248C33.5073 13.4285 33.5345 13.3447 33.5888 13.2732C33.6441 13.2007 33.717 13.1445 33.8075 13.1045C33.8981 13.0644 33.9977 13.0444 34.1063 13.0444Z" fill="#344054"/>
<path d="M35.1746 14.4512C35.1765 14.5132 35.1912 14.5689 35.2189 14.6185C35.2465 14.6681 35.287 14.7071 35.3404 14.7357C35.3947 14.7634 35.461 14.7772 35.5391 14.7772C35.6068 14.7772 35.6649 14.7681 35.7135 14.75C35.7631 14.731 35.8041 14.7086 35.8365 14.6828C35.8689 14.6561 35.8927 14.6314 35.908 14.6085L36.0438 14.7929C36.0143 14.8329 35.9771 14.8687 35.9323 14.9001C35.8875 14.9316 35.8317 14.9559 35.765 14.9731C35.6993 14.9912 35.6178 15.0002 35.5205 15.0002C35.3928 15.0002 35.2818 14.974 35.1874 14.9216C35.0931 14.8692 35.0197 14.7953 34.9673 14.7C34.9158 14.6047 34.8901 14.4932 34.8901 14.3654C34.8901 14.2511 34.9139 14.1481 34.9615 14.0566C35.0092 13.9642 35.0783 13.8913 35.1688 13.8379C35.2603 13.7845 35.37 13.7578 35.4977 13.7578C35.6168 13.7578 35.7202 13.7817 35.8079 13.8293C35.8956 13.877 35.9633 13.9456 36.0109 14.0352C36.0595 14.1238 36.0838 14.2311 36.0838 14.3569C36.0838 14.3645 36.0834 14.3802 36.0824 14.404C36.0824 14.4279 36.0815 14.4436 36.0795 14.4512H35.1746ZM35.7979 14.2282C35.7969 14.1977 35.7865 14.1629 35.7664 14.1238C35.7474 14.0847 35.7164 14.0509 35.6735 14.0223C35.6306 13.9928 35.5734 13.978 35.502 13.978C35.4286 13.978 35.369 13.9923 35.3232 14.0209C35.2775 14.0485 35.2437 14.0819 35.2217 14.121C35.1998 14.1591 35.187 14.1948 35.1831 14.2282H35.7979Z" fill="#344054"/>
<path d="M36.9886 13.7578C37.0677 13.7578 37.1444 13.774 37.2188 13.8064C37.2931 13.8388 37.3541 13.8908 37.4018 13.9623C37.4504 14.0328 37.4747 14.1248 37.4747 14.2382V14.9659H37.1673V14.294C37.1673 14.1882 37.1421 14.1105 37.0915 14.0609C37.042 14.0104 36.9776 13.9851 36.8985 13.9851C36.8461 13.9851 36.7961 13.9999 36.7484 14.0295C36.7008 14.059 36.6617 14.099 36.6312 14.1496C36.6016 14.2001 36.5869 14.2582 36.5869 14.324V14.9659H36.2809V13.7921H36.5869V13.9894C36.5954 13.957 36.6183 13.9232 36.6555 13.8879C36.6936 13.8517 36.7417 13.8212 36.7999 13.7964C36.858 13.7707 36.9209 13.7578 36.9886 13.7578Z" fill="#344054"/>
<path d="M38.2366 15.0002C38.126 15.0002 38.0283 14.974 37.9435 14.9216C37.8587 14.8692 37.792 14.7963 37.7434 14.7028C37.6957 14.6094 37.6719 14.5017 37.6719 14.3797C37.6719 14.2577 37.6957 14.15 37.7434 14.0566C37.792 13.9632 37.8587 13.8903 37.9435 13.8379C38.0283 13.7845 38.126 13.7578 38.2366 13.7578C38.3186 13.7578 38.3915 13.7721 38.4553 13.8007C38.5192 13.8284 38.5702 13.8608 38.6083 13.8979C38.6464 13.9351 38.6688 13.968 38.6755 13.9966V12.9987H38.9815V14.9659H38.6798V14.7486C38.6665 14.782 38.6393 14.8182 38.5983 14.8573C38.5573 14.8963 38.5054 14.9302 38.4425 14.9588C38.3805 14.9864 38.3119 15.0002 38.2366 15.0002ZM38.3152 14.7529C38.382 14.7529 38.4425 14.7372 38.4968 14.7057C38.5511 14.6743 38.5945 14.6309 38.6269 14.5756C38.6593 14.5194 38.6755 14.4541 38.6755 14.3797C38.6755 14.3054 38.6593 14.2406 38.6269 14.1853C38.5945 14.1291 38.5511 14.0852 38.4968 14.0538C38.4425 14.0214 38.382 14.0052 38.3152 14.0052C38.2542 14.0052 38.1975 14.0209 38.1451 14.0523C38.0936 14.0828 38.0522 14.1262 38.0207 14.1824C37.9893 14.2387 37.9735 14.3044 37.9735 14.3797C37.9735 14.455 37.9893 14.5208 38.0207 14.577C38.0522 14.6333 38.0936 14.6766 38.1451 14.7071C38.1975 14.7376 38.2542 14.7529 38.3152 14.7529Z" fill="#344054"/>
<path d="M39.8695 13.0787H40.886V13.3475H40.1698V13.8865H40.836V14.1539H40.1698V14.9659H39.8695V13.0787Z" fill="#344054"/>
<path d="M41.1531 13.0787H41.4533V14.9659H41.1531V13.0787Z" fill="#344054"/>
<path d="M42.0841 14.9659H41.7768V12.9987H42.0841V14.9659Z" fill="#344054"/>
<path d="M42.5705 14.4512C42.5724 14.5132 42.5872 14.5689 42.6148 14.6185C42.6424 14.6681 42.6829 14.7071 42.7363 14.7357C42.7906 14.7634 42.8569 14.7772 42.935 14.7772C43.0027 14.7772 43.0609 14.7681 43.1095 14.75C43.159 14.731 43.2 14.7086 43.2324 14.6828C43.2648 14.6561 43.2886 14.6314 43.3039 14.6085L43.4397 14.7929C43.4102 14.8329 43.373 14.8687 43.3282 14.9001C43.2834 14.9316 43.2276 14.9559 43.1609 14.9731C43.0952 14.9912 43.0137 15.0002 42.9165 15.0002C42.7887 15.0002 42.6777 14.974 42.5833 14.9216C42.489 14.8692 42.4156 14.7953 42.3632 14.7C42.3117 14.6047 42.286 14.4932 42.286 14.3654C42.286 14.2511 42.3098 14.1481 42.3575 14.0566C42.4051 13.9642 42.4742 13.8913 42.5648 13.8379C42.6563 13.7845 42.7659 13.7578 42.8936 13.7578C43.0127 13.7578 43.1161 13.7817 43.2038 13.8293C43.2915 13.877 43.3592 13.9456 43.4068 14.0352C43.4554 14.1238 43.4797 14.2311 43.4797 14.3569C43.4797 14.3645 43.4793 14.3802 43.4783 14.404C43.4783 14.4279 43.4774 14.4436 43.4755 14.4512H42.5705ZM43.1938 14.2282C43.1929 14.1977 43.1824 14.1629 43.1624 14.1238C43.1433 14.0847 43.1123 14.0509 43.0694 14.0223C43.0265 13.9928 42.9694 13.978 42.8979 13.978C42.8245 13.978 42.7649 13.9923 42.7192 14.0209C42.6734 14.0485 42.6396 14.0819 42.6177 14.121C42.5957 14.1591 42.5829 14.1948 42.5791 14.2282H43.1938Z" fill="#344054"/>
<path d="M45.1634 14.1481L44.8732 14.9659H44.573L44.2327 13.7921H44.5572L44.7617 14.6357L45.049 13.815H45.2792L45.5637 14.6357L45.771 13.7921H46.0956L45.7567 14.9659H45.4565L45.1634 14.1481Z" fill="#344054"/>
<path d="M46.2717 14.9659V13.7921H46.5762V14.9659H46.2717ZM46.4275 13.4404C46.3761 13.4404 46.3317 13.4219 46.2946 13.3847C46.2583 13.3475 46.2402 13.3032 46.2402 13.2517C46.2402 13.2003 46.2583 13.1559 46.2946 13.1188C46.3317 13.0806 46.3761 13.0616 46.4275 13.0616C46.4618 13.0616 46.4933 13.0706 46.5219 13.0887C46.5514 13.1059 46.5748 13.1288 46.5919 13.1574C46.61 13.185 46.6191 13.2165 46.6191 13.2517C46.6191 13.3032 46.6005 13.3475 46.5633 13.3847C46.5262 13.4219 46.4809 13.4404 46.4275 13.4404Z" fill="#344054"/>
<path d="M46.7757 13.7921H46.9958V13.3103H47.2989V13.7921H47.5892V14.0495H47.2989V14.5513C47.2989 14.6142 47.3094 14.6614 47.3304 14.6928C47.3523 14.7243 47.3833 14.74 47.4233 14.74C47.4567 14.74 47.4829 14.7338 47.502 14.7214C47.522 14.709 47.5339 14.7005 47.5377 14.6957L47.6506 14.9173C47.6449 14.923 47.6282 14.9325 47.6006 14.9459C47.573 14.9592 47.5372 14.9716 47.4934 14.9831C47.4495 14.9945 47.3995 15.0002 47.3433 15.0002C47.2441 15.0002 47.1612 14.9707 47.0945 14.9116C47.0287 14.8525 46.9958 14.76 46.9958 14.6342V14.0495H46.7757V13.7921Z" fill="#344054"/>
<path d="M48.5051 13.7578C48.5832 13.7578 48.6595 13.774 48.7338 13.8064C48.8082 13.8388 48.8692 13.8908 48.9168 13.9623C48.9654 14.0328 48.9897 14.1248 48.9897 14.2382V14.9659H48.6824V14.294C48.6824 14.1882 48.6581 14.1105 48.6094 14.0609C48.5618 14.0104 48.4984 13.9851 48.4193 13.9851C48.3669 13.9851 48.3164 13.9999 48.2677 14.0295C48.2191 14.059 48.1791 14.099 48.1477 14.1496C48.1172 14.2001 48.1019 14.2582 48.1019 14.324V14.9659H47.7945V12.9987H48.1019V13.9894C48.1105 13.957 48.1334 13.9232 48.1705 13.8879C48.2087 13.8517 48.2568 13.8212 48.3149 13.7964C48.3731 13.7707 48.4365 13.7578 48.5051 13.7578Z" fill="#344054"/>
<path d="M50.4344 14.6928L50.8061 13.7921H51.1106L50.3128 15.5607H50.004L50.2728 14.9659L49.7867 13.7921H50.0955L50.4344 14.6928Z" fill="#344054"/>
<path d="M51.7827 15.0002C51.6597 15.0002 51.5501 14.9735 51.4538 14.9202C51.3585 14.8658 51.2837 14.7924 51.2294 14.7C51.175 14.6066 51.1479 14.5008 51.1479 14.3826C51.1479 14.2644 51.175 14.1581 51.2294 14.0638C51.2837 13.9694 51.3585 13.8951 51.4538 13.8408C51.5501 13.7855 51.6597 13.7578 51.7827 13.7578C51.9056 13.7578 52.0143 13.7855 52.1086 13.8408C52.203 13.8951 52.2769 13.9694 52.3302 14.0638C52.3846 14.1581 52.4117 14.2644 52.4117 14.3826C52.4117 14.5008 52.3846 14.6066 52.3302 14.7C52.2769 14.7924 52.203 14.8658 52.1086 14.9202C52.0143 14.9735 51.9056 15.0002 51.7827 15.0002ZM51.7827 14.7429C51.8513 14.7429 51.9109 14.7272 51.9614 14.6957C52.0119 14.6642 52.051 14.6214 52.0786 14.567C52.1062 14.5127 52.1201 14.4507 52.1201 14.3812C52.1201 14.3116 52.1062 14.2496 52.0786 14.1953C52.051 14.14 52.0119 14.0962 51.9614 14.0638C51.9109 14.0314 51.8513 14.0152 51.7827 14.0152C51.714 14.0152 51.654 14.0314 51.6025 14.0638C51.552 14.0962 51.5125 14.14 51.4839 14.1953C51.4562 14.2496 51.4424 14.3116 51.4424 14.3812C51.4424 14.4507 51.4562 14.5127 51.4839 14.567C51.5125 14.6214 51.552 14.6642 51.6025 14.6957C51.654 14.7272 51.714 14.7429 51.7827 14.7429Z" fill="#344054"/>
<path d="M52.9003 14.3683C52.9003 14.4827 52.9236 14.5737 52.9703 14.6414C53.018 14.709 53.0928 14.7429 53.1948 14.7429C53.2977 14.7429 53.3725 14.709 53.4192 14.6414C53.4659 14.5737 53.4893 14.4827 53.4893 14.3683V13.7921H53.7924V14.4069C53.7924 14.5251 53.769 14.629 53.7223 14.7186C53.6756 14.8072 53.608 14.8763 53.5193 14.9259C53.4307 14.9754 53.3225 15.0002 53.1948 15.0002C53.068 15.0002 52.9603 14.9754 52.8717 14.9259C52.783 14.8763 52.7154 14.8072 52.6687 14.7186C52.622 14.629 52.5986 14.5251 52.5986 14.4069V13.7921H52.9003V14.3683Z" fill="#344054"/>
<path d="M54.3426 14.9659H54.0381V13.7921H54.3426V13.988H54.3355C54.3422 13.9642 54.3603 13.9346 54.3898 13.8994C54.4203 13.8631 54.4623 13.8307 54.5156 13.8021C54.569 13.7726 54.6333 13.7578 54.7086 13.7578C54.763 13.7578 54.8116 13.7655 54.8545 13.7807C54.8974 13.796 54.9278 13.8112 54.946 13.8265L54.823 14.0781C54.8106 14.0628 54.7873 14.0481 54.753 14.0338C54.7196 14.0185 54.6781 14.0109 54.6286 14.0109C54.5666 14.0109 54.5142 14.029 54.4713 14.0652C54.4294 14.1014 54.3974 14.1448 54.3755 14.1953C54.3536 14.2458 54.3426 14.293 54.3426 14.3369V14.9659Z" fill="#344054"/>
<path d="M56.2646 15.0002C56.1416 15.0002 56.032 14.9735 55.9358 14.9202C55.8405 14.8658 55.7656 14.7924 55.7113 14.7C55.657 14.6066 55.6298 14.5008 55.6298 14.3826C55.6298 14.2644 55.657 14.1581 55.7113 14.0638C55.7656 13.9694 55.8405 13.8951 55.9358 13.8408C56.032 13.7855 56.1416 13.7578 56.2646 13.7578C56.3875 13.7578 56.4962 13.7855 56.5906 13.8408C56.6849 13.8951 56.7588 13.9694 56.8122 14.0638C56.8665 14.1581 56.8937 14.2644 56.8937 14.3826C56.8937 14.5008 56.8665 14.6066 56.8122 14.7C56.7588 14.7924 56.6849 14.8658 56.5906 14.9202C56.4962 14.9735 56.3875 15.0002 56.2646 15.0002ZM56.2646 14.7429C56.3332 14.7429 56.3928 14.7272 56.4433 14.6957C56.4938 14.6642 56.5329 14.6214 56.5605 14.567C56.5882 14.5127 56.602 14.4507 56.602 14.3812C56.602 14.3116 56.5882 14.2496 56.5605 14.1953C56.5329 14.14 56.4938 14.0962 56.4433 14.0638C56.3928 14.0314 56.3332 14.0152 56.2646 14.0152C56.196 14.0152 56.1359 14.0314 56.0845 14.0638C56.0339 14.0962 55.9944 14.14 55.9658 14.1953C55.9382 14.2496 55.9243 14.3116 55.9243 14.3812C55.9243 14.4507 55.9382 14.5127 55.9658 14.567C55.9944 14.6214 56.0339 14.6642 56.0845 14.6957C56.1359 14.7272 56.196 14.7429 56.2646 14.7429Z" fill="#344054"/>
<path d="M57.3851 14.9659H57.0805V13.7921H57.3851V13.988H57.3779C57.3846 13.9642 57.4027 13.9346 57.4322 13.8994C57.4627 13.8631 57.5047 13.8307 57.5581 13.8021C57.6114 13.7726 57.6758 13.7578 57.7511 13.7578C57.8054 13.7578 57.854 13.7655 57.8969 13.7807C57.9398 13.796 57.9703 13.8112 57.9884 13.8265L57.8654 14.0781C57.853 14.0628 57.8297 14.0481 57.7954 14.0338C57.762 14.0185 57.7206 14.0109 57.671 14.0109C57.609 14.0109 57.5566 14.029 57.5137 14.0652C57.4718 14.1014 57.4399 14.1448 57.4179 14.1953C57.396 14.2458 57.3851 14.293 57.3851 14.3369V14.9659Z" fill="#344054"/>
<path d="M58.6372 15.5935C58.5476 15.5935 58.4642 15.5845 58.387 15.5664C58.3108 15.5492 58.2426 15.523 58.1826 15.4877C58.1226 15.4534 58.0739 15.411 58.0368 15.3605L58.2269 15.1718C58.2469 15.1966 58.2727 15.2223 58.3041 15.249C58.3356 15.2766 58.377 15.2995 58.4285 15.3176C58.48 15.3367 58.5453 15.3462 58.6244 15.3462C58.7016 15.3462 58.7673 15.3305 58.8217 15.299C58.8769 15.2676 58.9189 15.2242 58.9475 15.1689C58.977 15.1146 58.9918 15.0517 58.9918 14.9802V14.9445H59.292V14.9988C59.292 15.1284 59.263 15.2371 59.2048 15.3248C59.1467 15.4134 59.068 15.4801 58.9689 15.5249C58.8698 15.5707 58.7592 15.5935 58.6372 15.5935ZM58.9918 14.9659V14.7486C58.9842 14.7715 58.9622 14.8029 58.926 14.843C58.8908 14.883 58.8422 14.9192 58.7802 14.9516C58.7192 14.984 58.6468 15.0002 58.5629 15.0002C58.4533 15.0002 58.3546 14.974 58.2669 14.9216C58.1793 14.8692 58.1102 14.7963 58.0597 14.7028C58.0091 14.6094 57.9839 14.5017 57.9839 14.3797C57.9839 14.2577 58.0091 14.15 58.0597 14.0566C58.1102 13.9632 58.1793 13.8903 58.2669 13.8379C58.3546 13.7845 58.4533 13.7578 58.5629 13.7578C58.6449 13.7578 58.7159 13.7721 58.7759 13.8007C58.836 13.8293 58.8841 13.8622 58.9203 13.8994C58.9575 13.9365 58.9804 13.9689 58.9889 13.9966V13.7921H59.292V14.9659H58.9918ZM58.2855 14.3797C58.2855 14.455 58.3022 14.5208 58.3356 14.577C58.3689 14.6333 58.4123 14.6766 58.4657 14.7071C58.52 14.7376 58.5781 14.7529 58.6401 14.7529C58.7068 14.7529 58.7659 14.7372 58.8174 14.7057C58.8698 14.6743 58.9108 14.6309 58.9403 14.5756C58.9708 14.5194 58.9861 14.4541 58.9861 14.3797C58.9861 14.3054 58.9708 14.2406 58.9403 14.1853C58.9108 14.1291 58.8698 14.0852 58.8174 14.0538C58.7659 14.0214 58.7068 14.0052 58.6401 14.0052C58.5781 14.0052 58.52 14.0209 58.4657 14.0523C58.4123 14.0828 58.3689 14.1262 58.3356 14.1824C58.3022 14.2387 58.2855 14.3044 58.2855 14.3797Z" fill="#344054"/>
<path d="M60.4927 14.9659V14.7486C60.4851 14.7715 60.4632 14.8029 60.427 14.843C60.3917 14.883 60.3431 14.9192 60.2811 14.9516C60.2201 14.984 60.1477 15.0002 60.0638 15.0002C59.9542 15.0002 59.8556 14.974 59.7679 14.9216C59.6802 14.8692 59.6111 14.7963 59.5606 14.7028C59.5101 14.6094 59.4848 14.5017 59.4848 14.3797C59.4848 14.2577 59.5101 14.15 59.5606 14.0566C59.6111 13.9632 59.6802 13.8903 59.7679 13.8379C59.8556 13.7845 59.9542 13.7578 60.0638 13.7578C60.1458 13.7578 60.2168 13.7721 60.2769 13.8007C60.3369 13.8293 60.385 13.8622 60.4213 13.8994C60.4584 13.9365 60.4813 13.9689 60.4899 13.9966V13.7921H60.793V14.9659H60.4927ZM59.7865 14.3797C59.7865 14.455 59.8032 14.5208 59.8365 14.577C59.8699 14.6333 59.9132 14.6766 59.9666 14.7071C60.0209 14.7376 60.0791 14.7529 60.141 14.7529C60.2078 14.7529 60.2668 14.7372 60.3183 14.7057C60.3707 14.6743 60.4117 14.6309 60.4413 14.5756C60.4718 14.5194 60.487 14.4541 60.487 14.3797C60.487 14.3054 60.4718 14.2406 60.4413 14.1853C60.4117 14.1291 60.3707 14.0852 60.3183 14.0538C60.2668 14.0214 60.2078 14.0052 60.141 14.0052C60.0791 14.0052 60.0209 14.0209 59.9666 14.0523C59.9132 14.0828 59.8699 14.1262 59.8365 14.1824C59.8032 14.2387 59.7865 14.3044 59.7865 14.3797Z" fill="#344054"/>
<path d="M61.7523 13.7578C61.8314 13.7578 61.9082 13.774 61.9825 13.8064C62.0569 13.8388 62.1179 13.8908 62.1655 13.9623C62.2141 14.0328 62.2384 14.1248 62.2384 14.2382V14.9659H61.931V14.294C61.931 14.1882 61.9058 14.1105 61.8553 14.0609C61.8057 14.0104 61.7414 13.9851 61.6623 13.9851C61.6098 13.9851 61.5598 13.9999 61.5121 14.0295C61.4645 14.059 61.4254 14.099 61.3949 14.1496C61.3654 14.2001 61.3506 14.2582 61.3506 14.324V14.9659H61.0446V13.7921H61.3506V13.9894C61.3592 13.957 61.382 13.9232 61.4192 13.8879C61.4573 13.8517 61.5055 13.8212 61.5636 13.7964C61.6218 13.7707 61.6847 13.7578 61.7523 13.7578Z" fill="#344054"/>
<path d="M62.5099 14.9659V13.7921H62.8145V14.9659H62.5099ZM62.6658 13.4404C62.6143 13.4404 62.57 13.4219 62.5328 13.3847C62.4966 13.3475 62.4785 13.3032 62.4785 13.2517C62.4785 13.2003 62.4966 13.1559 62.5328 13.1188C62.57 13.0806 62.6143 13.0616 62.6658 13.0616C62.7001 13.0616 62.7316 13.0706 62.7601 13.0887C62.7897 13.1059 62.813 13.1288 62.8302 13.1574C62.8483 13.185 62.8574 13.2165 62.8574 13.2517C62.8574 13.3032 62.8388 13.3475 62.8016 13.3847C62.7644 13.4219 62.7192 13.4404 62.6658 13.4404Z" fill="#344054"/>
<path d="M63.0726 13.7921H64.1391L63.4729 14.7429H64.1034V14.9659H62.9868L63.653 14.0152H63.0726V13.7921Z" fill="#344054"/>
<path d="M65.2176 14.9659V14.7486C65.21 14.7715 65.1881 14.8029 65.1518 14.843C65.1166 14.883 65.068 14.9192 65.006 14.9516C64.945 14.984 64.8726 15.0002 64.7887 15.0002C64.6791 15.0002 64.5804 14.974 64.4928 14.9216C64.4051 14.8692 64.336 14.7963 64.2855 14.7028C64.2349 14.6094 64.2097 14.5017 64.2097 14.3797C64.2097 14.2577 64.2349 14.15 64.2855 14.0566C64.336 13.9632 64.4051 13.8903 64.4928 13.8379C64.5804 13.7845 64.6791 13.7578 64.7887 13.7578C64.8707 13.7578 64.9417 13.7721 65.0017 13.8007C65.0618 13.8293 65.1099 13.8622 65.1461 13.8994C65.1833 13.9365 65.2062 13.9689 65.2147 13.9966V13.7921H65.5178V14.9659H65.2176ZM64.5113 14.3797C64.5113 14.455 64.528 14.5208 64.5614 14.577C64.5947 14.6333 64.6381 14.6766 64.6915 14.7071C64.7458 14.7376 64.804 14.7529 64.8659 14.7529C64.9326 14.7529 64.9917 14.7372 65.0432 14.7057C65.0956 14.6743 65.1366 14.6309 65.1661 14.5756C65.1966 14.5194 65.2119 14.4541 65.2119 14.3797C65.2119 14.3054 65.1966 14.2406 65.1661 14.1853C65.1366 14.1291 65.0956 14.0852 65.0432 14.0538C64.9917 14.0214 64.9326 14.0052 64.8659 14.0052C64.804 14.0052 64.7458 14.0209 64.6915 14.0523C64.6381 14.0828 64.5947 14.1262 64.5614 14.1824C64.528 14.2387 64.5113 14.3044 64.5113 14.3797Z" fill="#344054"/>
<path d="M65.6752 13.7921H65.8953V13.3103H66.1984V13.7921H66.4886V14.0495H66.1984V14.5513C66.1984 14.6142 66.2089 14.6614 66.2299 14.6928C66.2518 14.7243 66.2828 14.74 66.3228 14.74C66.3562 14.74 66.3824 14.7338 66.4014 14.7214C66.4214 14.709 66.4334 14.7005 66.4372 14.6957L66.5501 14.9173C66.5444 14.923 66.5277 14.9325 66.5001 14.9459C66.4724 14.9592 66.4367 14.9716 66.3928 14.9831C66.349 14.9945 66.299 15.0002 66.2427 15.0002C66.1436 15.0002 66.0607 14.9707 65.994 14.9116C65.9282 14.8525 65.8953 14.76 65.8953 14.6342V14.0495H65.6752V13.7921Z" fill="#344054"/>
<path d="M66.7154 14.9659V13.7921H67.02V14.9659H66.7154ZM66.8713 13.4404C66.8198 13.4404 66.7755 13.4219 66.7383 13.3847C66.7021 13.3475 66.684 13.3032 66.684 13.2517C66.684 13.2003 66.7021 13.1559 66.7383 13.1188C66.7755 13.0806 66.8198 13.0616 66.8713 13.0616C66.9056 13.0616 66.937 13.0706 66.9656 13.0887C66.9952 13.1059 67.0185 13.1288 67.0357 13.1574C67.0538 13.185 67.0629 13.2165 67.0629 13.2517C67.0629 13.3032 67.0443 13.3475 67.0071 13.3847C66.9699 13.4219 66.9247 13.4404 66.8713 13.4404Z" fill="#344054"/>
<path d="M67.8785 15.0002C67.7556 15.0002 67.6459 14.9735 67.5497 14.9202C67.4544 14.8658 67.3796 14.7924 67.3252 14.7C67.2709 14.6066 67.2437 14.5008 67.2437 14.3826C67.2437 14.2644 67.2709 14.1581 67.3252 14.0638C67.3796 13.9694 67.4544 13.8951 67.5497 13.8408C67.6459 13.7855 67.7556 13.7578 67.8785 13.7578C68.0015 13.7578 68.1101 13.7855 68.2045 13.8408C68.2988 13.8951 68.3727 13.9694 68.4261 14.0638C68.4804 14.1581 68.5076 14.2644 68.5076 14.3826C68.5076 14.5008 68.4804 14.6066 68.4261 14.7C68.3727 14.7924 68.2988 14.8658 68.2045 14.9202C68.1101 14.9735 68.0015 15.0002 67.8785 15.0002ZM67.8785 14.7429C67.9471 14.7429 68.0067 14.7272 68.0572 14.6957C68.1077 14.6642 68.1468 14.6214 68.1745 14.567C68.2021 14.5127 68.2159 14.4507 68.2159 14.3812C68.2159 14.3116 68.2021 14.2496 68.1745 14.1953C68.1468 14.14 68.1077 14.0962 68.0572 14.0638C68.0067 14.0314 67.9471 14.0152 67.8785 14.0152C67.8099 14.0152 67.7498 14.0314 67.6984 14.0638C67.6479 14.0962 67.6083 14.14 67.5797 14.1953C67.5521 14.2496 67.5382 14.3116 67.5382 14.3812C67.5382 14.4507 67.5521 14.5127 67.5797 14.567C67.6083 14.6214 67.6479 14.6642 67.6984 14.6957C67.7498 14.7272 67.8099 14.7429 67.8785 14.7429Z" fill="#344054"/>
<path d="M69.4107 13.7578C69.4898 13.7578 69.5666 13.774 69.6409 13.8064C69.7152 13.8388 69.7762 13.8908 69.8239 13.9623C69.8725 14.0328 69.8968 14.1248 69.8968 14.2382V14.9659H69.5894V14.294C69.5894 14.1882 69.5642 14.1105 69.5137 14.0609C69.4641 14.0104 69.3998 13.9851 69.3207 13.9851C69.2682 13.9851 69.2182 13.9999 69.1705 14.0295C69.1229 14.059 69.0838 14.099 69.0533 14.1496C69.0238 14.2001 69.009 14.2582 69.009 14.324V14.9659H68.703V13.7921H69.009V13.9894C69.0176 13.957 69.0404 13.9232 69.0776 13.8879C69.1157 13.8517 69.1639 13.8212 69.222 13.7964C69.2801 13.7707 69.3431 13.7578 69.4107 13.7578Z" fill="#344054"/>
</svg>
