<svg width="73" height="74" viewBox="0 0 73 74" fill="none" xmlns="http://www.w3.org/2000/svg">
<g opacity="0.25">
<g opacity="0.41">
<path d="M68.9607 45.8323C69.0225 44.7501 68.9949 43.663 68.875 42.5866C68.3123 37.5286 65.7645 32.7592 62.0144 29.3939C60.6765 28.1933 59.1543 27.1178 58.2835 25.533C56.8173 22.8641 56.9283 19.7969 55.1086 17.1618C53.2867 14.5235 50.6317 12.4662 47.6375 11.4096C38.7101 8.25921 26.2114 13.3888 27.3368 24.3432C27.3408 24.3824 27.3452 24.4396 27.3501 24.5119C27.4998 26.7873 25.7461 28.7005 23.5144 28.7544C15.2777 28.9534 8.18764 35.4211 6.67054 43.6135C5.69482 48.8822 7.29249 54.6572 11.0767 58.3843C13.9016 61.1665 17.6915 62.6949 21.4835 63.7453C29.0864 65.8511 37.0872 66.2924 44.9265 65.4873C52.2645 64.7336 60.0049 62.585 64.7507 56.8354C67.2822 53.768 68.7325 49.8347 68.9607 45.8323Z" fill="#444CE7"/>
</g>
<g opacity="0.31">
<path d="M66.7404 11.2804C67.2003 9.71766 66.3292 8.07112 64.7947 7.60278C63.2602 7.13444 61.6434 8.02164 61.1834 9.58442C60.7235 11.1472 61.5945 12.7937 63.1291 13.2621C64.6636 13.7304 66.2804 12.8432 66.7404 11.2804Z" fill="#444CE7"/>
</g>
<g opacity="0.31">
<path d="M59.2118 7.30051C59.3159 7.85772 58.9567 8.39545 58.4095 8.50147C57.8623 8.6075 57.3342 8.24167 57.2301 7.68446C57.126 7.12725 57.4853 6.58952 58.0324 6.4835C58.5798 6.37748 59.1078 6.74331 59.2118 7.30051Z" fill="#444CE7"/>
</g>
<g opacity="0.31">
<path d="M23.2322 13.4117C23.4038 12.6719 22.954 11.9306 22.2276 11.756C21.5013 11.5813 20.7734 12.0394 20.6018 12.7792C20.4303 13.5189 20.8801 14.2602 21.6064 14.4348C22.3328 14.6095 23.0607 14.1514 23.2322 13.4117Z" fill="#444CE7"/>
</g>
<g opacity="0.31">
<path d="M9.91423 66.422C10.194 65.2071 9.45375 63.9914 8.26086 63.7065C7.06798 63.4217 5.87417 64.1756 5.59442 65.3905C5.31467 66.6054 6.05492 67.8211 7.2478 68.106C8.44068 68.3908 9.63448 67.6369 9.91423 66.422Z" fill="#444CE7"/>
</g>
</g>
<path opacity="0.58" d="M12.4003 11.011C12.7657 11.011 13.062 10.7093 13.062 10.3372C13.062 9.965 12.7657 9.6633 12.4003 9.6633C12.0348 9.6633 11.7385 9.965 11.7385 10.3372C11.7385 10.7093 12.0348 11.011 12.4003 11.011Z" fill="#FFA000"/>
<path opacity="0.58" d="M3.72713 44.5311C3.72713 44.6787 3.60963 44.7984 3.46464 44.7984C3.31964 44.7984 3.20215 44.6787 3.20215 44.5311C3.20215 44.3834 3.31964 44.2638 3.46464 44.2638C3.60963 44.2638 3.72713 44.3834 3.72713 44.5311Z" fill="#FFA000"/>
<path opacity="0.58" d="M68.7303 16.8793C68.7303 17.027 68.6128 17.1466 68.4678 17.1466C68.3228 17.1466 68.2053 17.027 68.2053 16.8793C68.2053 16.7317 68.3228 16.612 68.4678 16.612C68.6128 16.612 68.7303 16.7318 68.7303 16.8793Z" fill="#FFA000"/>
<path opacity="0.58" d="M7.68953 5.97C7.68953 6.11764 7.57203 6.23729 7.42704 6.23729C7.28205 6.23729 7.16455 6.11764 7.16455 5.97C7.16455 5.82235 7.28205 5.7027 7.42704 5.7027C7.57203 5.7027 7.68953 5.82235 7.68953 5.97Z" fill="#444CE7"/>
<path opacity="0.58" d="M69.2552 34.7085C69.2552 34.8562 69.1377 34.9758 68.9927 34.9758C68.8477 34.9758 68.7302 34.8562 68.7302 34.7085C68.7302 34.5609 68.8477 34.4412 68.9927 34.4412C69.1377 34.4412 69.2552 34.5609 69.2552 34.7085Z" fill="#444CE7"/>
<path opacity="0.58" d="M30.576 5.97C30.576 6.11764 30.4585 6.23729 30.3135 6.23729C30.1685 6.23729 30.051 6.11764 30.051 5.97C30.051 5.82235 30.1685 5.7027 30.3135 5.7027C30.4585 5.7027 30.576 5.82235 30.576 5.97Z" fill="#444CE7"/>
<path opacity="0.58" d="M48.7516 6.94854C48.66 7.38565 48.2376 7.66418 47.8085 7.57088C47.3793 7.47759 47.1058 7.04752 47.1974 6.61056C47.289 6.17345 47.7113 5.89492 48.1404 5.98822C48.5695 6.08151 48.8432 6.51143 48.7516 6.94854Z" fill="#FFA000"/>
<g opacity="0.25">
<g opacity="0.47">
<path d="M10.4367 14.8793C9.74111 13.5589 8.12608 13.0626 6.82938 13.7712C5.53283 14.4797 4.14483 16.6168 4.84045 17.9373C5.53607 19.2578 7.60499 18.219 9.07637 18.2365C11.1285 18.2611 11.1325 16.2 10.4367 14.8793Z" fill="#444CE7"/>
</g>
<g opacity="0.47">
<path d="M68.6613 55.0165C69.5816 53.5259 69.8123 51.6766 69.6207 49.9266C69.4303 48.1878 68.9072 46.3633 68.1766 44.7818C67.484 43.283 66.4817 41.9459 66.196 40.2764C65.8186 38.0706 66.8071 35.9504 67.0366 33.7867C67.4934 29.4793 64.6352 25.6839 61.0893 23.6345C58.2094 21.9699 54.833 21.3453 51.5219 21.3898C48.5418 21.4298 45.567 21.9683 42.6793 22.6923C39.8963 23.39 37.1755 24.3094 34.2584 24.0194C31.8324 23.7781 29.6474 22.7519 27.3881 21.9867C21.9941 20.1598 15.4601 19.9021 10.5276 22.6833C7.36213 24.4683 5.14646 27.3669 4.16383 30.4835C3.44409 32.7662 3.2306 35.3909 3.75801 37.7011C4.35071 40.2969 5.44568 42.5835 5.15661 45.3179C4.91929 47.5617 4.11002 49.7492 4.18147 52.0253C4.24293 53.9816 4.96252 55.9381 6.08116 57.5203C6.1535 57.6224 6.2304 57.7232 6.31701 57.8127H65.5161C66.7555 57.1321 67.9122 56.2299 68.6613 55.0165Z" fill="#444CE7"/>
</g>
<g opacity="0.81">
<path d="M61.0616 53.5228C61.2712 51.8603 60.7803 50.3161 60.8447 48.7003C60.9685 45.5933 63.7713 43.4481 64.7479 40.6551C65.9846 37.1182 65.9252 33.155 64.4234 29.7086C63.6995 28.0476 62.6422 26.5041 61.1983 25.4365C58.9724 23.7908 56.0558 23.4299 53.3128 23.6387C49.2306 23.9494 44.923 25.6785 40.8186 25.207C38.5536 24.9467 37.862 22.5481 36.6922 20.9658C35.3692 19.1764 33.5674 17.7707 31.5755 16.8351C27.9067 15.1118 23.5036 14.9487 19.7539 16.5113C15.7506 18.1795 12.2613 22.2535 12.4907 26.8609C12.5969 28.9924 13.4688 31.1094 13.0652 33.2037C12.5585 35.832 10.5346 38.2271 9.0679 40.3686C7.44817 42.7337 6.46759 45.554 6.27527 48.4314C6.05722 51.6938 6.85518 55.0181 8.5224 57.8125H59.6544C60.3964 56.4964 60.8717 55.0274 61.0616 53.5228Z" fill="#444CE7"/>
</g>
</g>
<path d="M65.0082 58.4549H6.86186C6.7335 58.4549 6.62939 58.3488 6.62939 58.2181C6.62939 58.0874 6.7335 57.9815 6.86186 57.9815H65.0082C65.1365 57.9815 65.2406 58.0875 65.2406 58.2181C65.2406 58.3488 65.1365 58.4549 65.0082 58.4549Z" fill="#233863"/>
<path d="M56.1698 43.4778H45.0006C44.5515 43.4778 44.1863 43.1078 44.1863 42.6532V35.7914C44.1863 35.2436 44.6263 34.798 45.1672 34.798H53.1803C53.2606 34.798 53.3255 34.8639 53.3255 34.9451C53.3255 35.0263 53.2606 35.0921 53.1803 35.0921H45.1671C44.7863 35.0921 44.4766 35.4058 44.4766 35.7914V42.6532C44.4766 42.9456 44.7117 43.1837 45.0005 43.1837H56.1697C56.4585 43.1837 56.6935 42.9456 56.6935 42.6532V35.9706C56.6935 35.4862 56.3043 35.0921 55.8261 35.0921H54.2781C54.1978 35.0921 54.1329 35.0263 54.1329 34.9451C54.1329 34.8639 54.1978 34.798 54.2781 34.798H55.8261C56.4646 34.798 56.9839 35.324 56.9839 35.9706V42.6532C56.984 43.108 56.6187 43.4778 56.1698 43.4778Z" fill="#FFA000"/>
<path d="M44.7167 43.2767C44.6768 43.2767 44.6369 43.2601 44.6082 43.2275C44.555 43.1667 44.5603 43.0738 44.6202 43.0198L49.1831 38.9091C49.2428 38.855 49.335 38.8606 49.3881 38.9212C49.4414 38.9819 49.4361 39.0749 49.3762 39.1288L44.8133 43.2395C44.7856 43.2645 44.751 43.2767 44.7167 43.2767Z" fill="#FFA000"/>
<path d="M56.4076 43.3904C56.3733 43.3904 56.3389 43.3782 56.3113 43.3534L51.7549 39.2634C51.6949 39.2096 51.6894 39.1166 51.7426 39.0559C51.7957 38.9947 51.8875 38.9896 51.9475 39.0434L56.5039 43.1335C56.5638 43.1873 56.5694 43.2803 56.5162 43.341C56.4876 43.3736 56.4477 43.3904 56.4076 43.3904Z" fill="#FFA000"/>
<path d="M50.5864 40.0426C50.4354 40.0426 50.2844 39.9946 50.1557 39.8987L44.3784 35.5994C44.3137 35.5513 44.2998 35.4592 44.3473 35.3938C44.3948 35.3285 44.4857 35.3139 44.5503 35.3625L50.3278 39.6618C50.4819 39.7765 50.6891 39.7768 50.8437 39.6629L56.4978 35.4885C56.5626 35.4407 56.6535 35.4552 56.7007 35.5207C56.748 35.5863 56.7337 35.6783 56.6689 35.7263L51.0148 39.9006C50.8866 39.9952 50.7366 40.0426 50.5864 40.0426Z" fill="#FFA000"/>
<path d="M56.2685 33.8811C56.389 33.9707 56.5511 33.9713 56.6722 33.8818L61.4775 30.3341C61.2919 30.1019 61.0084 29.9532 60.6904 29.9532H52.0722C51.8063 29.9532 51.57 30.0794 51.417 30.2752C51.4225 30.2783 51.4286 30.2792 51.4337 30.2832L56.2685 33.8811Z" fill="#444CE7"/>
<path d="M56.8432 34.1193C56.7317 34.2017 56.6013 34.2427 56.4709 34.2427C56.3397 34.2427 56.2083 34.2011 56.0966 34.1177L55.3629 33.5717L51.6554 36.9117C51.6526 36.9142 51.6491 36.9151 51.6462 36.9173C51.726 36.9513 51.8137 36.9702 51.9056 36.9702H61.0339C61.0858 36.9702 61.1356 36.963 61.1841 36.9517L57.4937 33.639L56.8432 34.1193Z" fill="#444CE7"/>
<path d="M55.1235 33.3936L51.2794 30.533C51.252 30.6168 51.2366 30.706 51.2366 30.7993V36.2927C51.2366 36.474 51.3079 36.6379 51.4224 36.7595C51.43 36.7345 51.4416 36.7106 51.4622 36.6921L55.1235 33.3936Z" fill="#444CE7"/>
<path d="M61.4385 36.7873C61.4467 36.7948 61.4515 36.8044 61.4578 36.8132C61.6063 36.689 61.703 36.5032 61.703 36.293V30.9786C61.703 30.8402 61.6756 30.7085 61.6265 30.588L57.7339 33.462L61.4385 36.7873Z" fill="#444CE7"/>
<g opacity="0.69">
<path d="M61.7193 50.6162H54.1387C53.6897 50.6162 53.3245 50.2463 53.3245 49.7916V45.3359C53.3245 44.7881 53.7645 44.3425 54.3054 44.3425H61.3757C62.0141 44.3425 62.5337 44.8684 62.5337 45.515V49.7916C62.5335 50.2464 62.1682 50.6162 61.7193 50.6162ZM54.3052 44.6366C53.9245 44.6366 53.6147 44.9503 53.6147 45.3359V49.7916C53.6147 50.0841 53.8497 50.3221 54.1385 50.3221H61.7192C62.008 50.3221 62.243 50.0841 62.243 49.7916V45.515C62.243 45.0307 61.8538 44.6366 61.3754 44.6366H54.3052Z" fill="white"/>
<path d="M56.8994 47.2851L53.6462 50.2173L53.8394 50.437L57.0925 47.5047L56.8994 47.2851Z" fill="white"/>
<path d="M58.9247 47.3798L58.7322 47.5998L61.9813 50.5164L62.1739 50.2964L58.9247 47.3798Z" fill="white"/>
<path d="M57.9298 48.1667C57.8135 48.1667 57.6972 48.13 57.5982 48.0561L53.4783 44.9902L53.6501 44.7533L57.7699 47.8192C57.8651 47.8898 57.993 47.8901 58.0887 47.8198L62.3568 44.6686L62.5279 44.9061L58.2596 48.0573C58.1612 48.1303 58.0454 48.1667 57.9298 48.1667Z" fill="white"/>
</g>
<path d="M61.6474 31.8309C62.6549 31.8309 63.4716 31.0039 63.4716 29.9836C63.4716 28.9634 62.6549 28.1364 61.6474 28.1364C60.64 28.1364 59.8232 28.9634 59.8232 29.9836C59.8232 31.0039 60.64 31.8309 61.6474 31.8309Z" fill="#FFA000"/>
<path d="M61.2437 30.6973H61.0437V29.4749L60.8408 29.6009V29.3915L61.0437 29.2546H61.2437V30.6973Z" fill="white"/>
<path d="M61.6705 30.604C61.6016 30.5318 61.5671 30.4314 61.5671 30.3024V29.6465C61.5671 29.5168 61.6017 29.4161 61.671 29.3443C61.7403 29.2726 61.8412 29.2367 61.9738 29.2367C62.107 29.2367 62.2082 29.2724 62.277 29.3439C62.3459 29.4154 62.3804 29.5162 62.3804 29.6465V30.3024C62.3804 30.4321 62.3459 30.5328 62.2766 30.6046C62.2073 30.6763 62.1064 30.7122 61.9738 30.7122C61.8405 30.7122 61.7394 30.6762 61.6705 30.604ZM62.1301 30.4636C62.1638 30.4262 62.1806 30.3724 62.1806 30.3024V29.6465C62.1806 29.5764 62.1639 29.5227 62.1306 29.4852C62.0974 29.4479 62.045 29.4292 61.9738 29.4292C61.9025 29.4292 61.8503 29.4479 61.8169 29.4852C61.7837 29.5226 61.767 29.5764 61.767 29.6465V30.3024C61.767 30.3725 61.7838 30.4264 61.8174 30.4636C61.8511 30.5009 61.9032 30.5196 61.9738 30.5196C62.0444 30.5196 62.0965 30.5011 62.1301 30.4636Z" fill="white"/>
<path d="M21.163 29.4679C21.0634 29.4679 20.9663 29.4275 20.8941 29.3515L19.6647 28.0592C19.5829 27.9733 19.4687 27.9242 19.3512 27.9242L7.27267 27.9099C6.60221 27.9099 6.05664 27.3574 6.05664 26.6785V22.0406C6.05664 21.3615 6.60221 20.8092 7.27281 20.8092H20.1535C20.917 20.8092 21.5383 21.4381 21.5383 22.2113V29.0885C21.5383 29.244 21.4462 29.3821 21.3039 29.4403C21.2581 29.4588 21.2104 29.4679 21.163 29.4679ZM7.27281 21.1033C6.76224 21.1033 6.34707 21.5237 6.34707 22.0406V26.6785C6.34707 27.1954 6.76224 27.6158 7.27281 27.6158L19.3513 27.6301C19.5474 27.6301 19.7377 27.7121 19.874 27.8552L21.1032 29.1475C21.1388 29.185 21.1794 29.1737 21.1954 29.1674C21.2112 29.1609 21.248 29.1403 21.248 29.0884V22.2112C21.248 21.6002 20.757 21.1031 20.1536 21.1031H7.27281V21.1033Z" fill="#444CE7"/>
<path d="M18.1491 23.5514H15.0544C14.9741 23.5514 14.9092 23.4855 14.9092 23.4043C14.9092 23.3231 14.9741 23.2573 15.0544 23.2573H18.1491C18.2294 23.2573 18.2943 23.3231 18.2943 23.4043C18.2943 23.4855 18.2294 23.5514 18.1491 23.5514Z" fill="#FFA000"/>
<path d="M13.1701 23.5514H8.43281C8.35251 23.5514 8.2876 23.4855 8.2876 23.4043C8.2876 23.3231 8.35251 23.2573 8.43281 23.2573H13.1701C13.2505 23.2573 13.3154 23.3231 13.3154 23.4043C13.3154 23.4855 13.2505 23.5514 13.1701 23.5514Z" fill="#FFA000"/>
<path d="M18.1492 24.668H10.3549C10.2746 24.668 10.2097 24.6021 10.2097 24.521C10.2097 24.4398 10.2746 24.3739 10.3549 24.3739H18.1493C18.2296 24.3739 18.2945 24.4398 18.2945 24.521C18.2944 24.6021 18.2295 24.668 18.1492 24.668Z" fill="#FFA000"/>
<path d="M18.1492 25.7846H12.9848C12.9045 25.7846 12.8396 25.7188 12.8396 25.6376C12.8396 25.5564 12.9045 25.4905 12.9848 25.4905H18.1492C18.2295 25.4905 18.2944 25.5564 18.2944 25.6376C18.2944 25.7188 18.2295 25.7846 18.1492 25.7846Z" fill="#FFA000"/>
<path d="M19.503 21.558H15.3069C15.173 21.558 15.0447 21.6132 14.9518 21.711L13.9079 22.8084C13.7863 22.9362 13.573 22.849 13.573 22.6717V21.0069V16.8319C13.573 16.2432 14.0442 15.7661 14.6255 15.7661H19.6701C20.1431 15.7661 20.5266 16.1544 20.5266 16.6334V20.5216C20.5263 21.0941 20.0682 21.558 19.503 21.558Z" fill="#FFA000"/>
<path d="M15.7867 18.7906C15.7867 18.9916 15.6258 19.1544 15.4274 19.1544C15.2289 19.1544 15.0681 18.9915 15.0681 18.7906C15.0681 18.5898 15.229 18.4268 15.4274 18.4268C15.6258 18.4268 15.7867 18.5898 15.7867 18.7906Z" fill="white"/>
<path d="M17.4708 18.7906C17.4708 18.9916 17.3099 19.1544 17.1115 19.1544C16.9131 19.1544 16.7522 18.9915 16.7522 18.7906C16.7522 18.5898 16.9131 18.4268 17.1115 18.4268C17.31 18.4268 17.4708 18.5898 17.4708 18.7906Z" fill="white"/>
<path d="M18.8349 19.1544C19.0333 19.1544 19.1942 18.9916 19.1942 18.7906C19.1942 18.5897 19.0333 18.4268 18.8349 18.4268C18.6365 18.4268 18.4756 18.5897 18.4756 18.7906C18.4756 18.9916 18.6365 19.1544 18.8349 19.1544Z" fill="white"/>
<path d="M19.561 36.2103C20.7062 33.8968 19.7825 31.0814 17.4978 29.9219C15.2132 28.7624 12.4327 29.6979 11.2875 32.0114C10.1423 34.3248 11.066 37.1402 13.3506 38.2997C15.6353 39.4592 18.4157 38.5237 19.561 36.2103Z" fill="#444CE7"/>
<path d="M15.4235 36.682C14.9125 36.682 14.4831 36.2948 14.4244 35.7815L14.4055 35.6175H16.4412L16.4224 35.7815C16.3637 36.295 15.9341 36.682 15.4235 36.682ZM14.751 35.9116C14.8515 36.192 15.117 36.3879 15.4235 36.3879C15.7297 36.3879 15.9952 36.192 16.0957 35.9116H14.751Z" fill="white"/>
<path d="M17.2105 34.9385H13.6365V33.2764C13.6365 32.3183 14.4061 31.5388 15.352 31.5388H15.4945C16.4406 31.5388 17.2104 32.3182 17.2104 33.2764L17.2105 34.9385ZM13.9269 34.6444H16.9199V33.2764C16.9199 32.4805 16.2805 31.8329 15.4945 31.8329H15.352C14.5661 31.8329 13.9269 32.4804 13.9269 33.2764V34.6444Z" fill="white"/>
<path d="M17.0658 35.9117H13.7807C13.4472 35.9117 13.1758 35.6368 13.1758 35.2992V35.2569C13.1758 34.9192 13.4472 34.6444 13.7807 34.6444H17.0658C17.3993 34.6444 17.6708 34.9192 17.6708 35.2569V35.2992C17.6708 35.6368 17.3993 35.9117 17.0658 35.9117ZM13.7816 34.9386C13.6074 34.9386 13.4662 35.0814 13.4662 35.257V35.2994C13.4662 35.4749 13.6074 35.6177 13.7807 35.6177H17.0658C17.2392 35.6177 17.3803 35.4749 17.3803 35.2994V35.257C17.3803 35.0814 17.2392 34.9386 17.0658 34.9386H13.7816Z" fill="white"/>
<path d="M24.3565 12.8248C25.4912 11.6759 25.4912 9.81322 24.3565 8.66435C23.2219 7.51547 21.3822 7.51547 20.2476 8.66435C19.1129 9.81322 19.1129 11.6759 20.2476 12.8248C21.3822 13.9737 23.2219 13.9737 24.3565 12.8248Z" fill="#444CE7"/>
<path d="M22.1406 9.58035H22.4632V11.3115H22.1406V9.58035ZM22.1406 11.5822H22.4632V11.9088H22.1406V11.5822Z" fill="white"/>
<path d="M61.5037 17.3094H46.2707C45.4612 17.3094 44.8049 17.974 44.8049 18.7938V24.6083V26.9268C44.8049 27.1739 45.102 27.2954 45.2714 27.1173L46.7252 25.589C46.8546 25.4529 47.0332 25.376 47.2197 25.376L61.5036 25.3593C62.2031 25.3593 62.77 24.785 62.77 24.0768V18.592C62.7702 17.8835 62.2031 17.3094 61.5037 17.3094Z" fill="#FFA000"/>
<path d="M52.301 20.3516H48.6413C48.561 20.3516 48.4961 20.2857 48.4961 20.2045C48.4961 20.1233 48.561 20.0575 48.6413 20.0575H52.301C52.3813 20.0575 52.4462 20.1233 52.4462 20.2045C52.4462 20.2857 52.3813 20.3516 52.301 20.3516Z" fill="white"/>
<path d="M60.132 20.3516H54.5295C54.4492 20.3516 54.3843 20.2857 54.3843 20.2045C54.3843 20.1233 54.4492 20.0575 54.5295 20.0575H60.132C60.2123 20.0575 60.2772 20.1233 60.2772 20.2045C60.2772 20.2857 60.2122 20.3516 60.132 20.3516Z" fill="white"/>
<path d="M57.8589 21.6723H48.6411C48.5608 21.6723 48.4958 21.6064 48.4958 21.5253C48.4958 21.4441 48.5608 21.3782 48.6411 21.3782H57.8589C57.9392 21.3782 58.0041 21.4441 58.0041 21.5253C58.0041 21.6064 57.9392 21.6723 57.8589 21.6723Z" fill="white"/>
<path d="M54.7489 22.9927H48.6413C48.561 22.9927 48.4961 22.9268 48.4961 22.8456C48.4961 22.7644 48.561 22.6985 48.6413 22.6985H54.7489C54.8292 22.6985 54.8941 22.7644 54.8941 22.8456C54.8941 22.9268 54.829 22.9927 54.7489 22.9927Z" fill="white"/>
<path d="M42.1365 17.6173H46.3805C46.516 17.6173 46.6457 17.6732 46.7397 17.7719L47.7955 18.8818C47.9185 19.0111 48.1343 18.923 48.1343 18.7434V17.0597V12.8372C48.1343 12.2418 47.6577 11.7593 47.0699 11.7593H41.9678C41.4893 11.7593 41.1016 12.1521 41.1016 12.6365V16.5691C41.1014 17.1481 41.5649 17.6173 42.1365 17.6173Z" fill="#444CE7"/>
<path d="M45.8953 14.8186C45.8953 15.0218 46.0579 15.1865 46.2586 15.1865C46.4593 15.1865 46.622 15.0218 46.622 14.8186C46.622 14.6154 46.4593 14.4507 46.2586 14.4507C46.0581 14.4505 45.8953 14.6154 45.8953 14.8186Z" fill="white"/>
<path d="M44.1921 14.8186C44.1921 15.0218 44.3548 15.1865 44.5555 15.1865C44.7562 15.1865 44.9189 15.0218 44.9189 14.8186C44.9189 14.6154 44.7562 14.4507 44.5555 14.4507C44.3548 14.4505 44.1921 14.6154 44.1921 14.8186Z" fill="white"/>
<path d="M42.449 14.8186C42.449 15.0218 42.6116 15.1865 42.8123 15.1865C43.0131 15.1865 43.1757 15.0218 43.1757 14.8186C43.1757 14.6154 43.0131 14.4507 42.8123 14.4507C42.6116 14.4505 42.449 14.6154 42.449 14.8186Z" fill="white"/>
<path d="M63.7484 19.9768C64.6294 19.0847 64.6294 17.6384 63.7484 16.7463C62.8674 15.8543 61.4389 15.8543 60.5579 16.7463C59.6769 17.6384 59.6769 19.0847 60.5579 19.9768C61.4389 20.8689 62.8674 20.8689 63.7484 19.9768Z" fill="#444CE7"/>
<path d="M62.4116 19.428H62.1012V17.53L61.7864 17.7258V17.4006L62.1012 17.188H62.4116V19.428Z" fill="white"/>
<g opacity="0.61">
<path d="M42.6088 51.5149H38.8078C38.7275 51.5149 38.6626 51.4492 38.6626 51.3679C38.6626 51.2866 38.7275 51.2208 38.8078 51.2208H42.6088C42.6891 51.2208 42.754 51.2866 42.754 51.3679C42.754 51.4491 42.6891 51.5149 42.6088 51.5149Z" fill="white"/>
<path d="M50.7419 51.5149H44.923C44.8427 51.5149 44.7778 51.4492 44.7778 51.3679C44.7778 51.2866 44.8427 51.2208 44.923 51.2208H50.7418C50.8221 51.2208 50.887 51.2866 50.887 51.3679C50.8872 51.4491 50.8221 51.5149 50.7419 51.5149Z" fill="white"/>
<path d="M48.3815 52.8865H38.8078C38.7275 52.8865 38.6626 52.8208 38.6626 52.7395C38.6626 52.6581 38.7275 52.5924 38.8078 52.5924H48.3815C48.4618 52.5924 48.5267 52.6581 48.5267 52.7395C48.5267 52.8206 48.4618 52.8865 48.3815 52.8865Z" fill="white"/>
<path d="M45.1511 54.2579H38.8078C38.7275 54.2579 38.6626 54.1921 38.6626 54.1108C38.6626 54.0295 38.7275 53.9637 38.8078 53.9637H45.1511C45.2314 53.9637 45.2963 54.0295 45.2963 54.1108C45.2963 54.1921 45.2314 54.2579 45.1511 54.2579Z" fill="white"/>
<path d="M18.1107 49.3446H8.28755C8.20724 49.3446 8.14233 49.2789 8.14233 49.1976C8.14233 49.1163 8.20724 49.0505 8.28755 49.0505H18.1107C18.191 49.0505 18.256 49.1163 18.256 49.1976C18.256 49.2789 18.191 49.3446 18.1107 49.3446Z" fill="white"/>
<path d="M18.1107 46.271H8.28755C8.20724 46.271 8.14233 46.2052 8.14233 46.1239C8.14233 46.0426 8.20724 45.9769 8.28755 45.9769H18.1107C18.191 45.9769 18.256 46.0426 18.256 46.1239C18.256 46.2052 18.191 46.271 18.1107 46.271Z" fill="white"/>
<path d="M18.1106 47.808H12.8146C12.7343 47.808 12.6694 47.7423 12.6694 47.661C12.6694 47.5796 12.7343 47.5139 12.8146 47.5139H18.1106C18.1909 47.5139 18.2558 47.5796 18.2558 47.661C18.2558 47.7423 18.1909 47.808 18.1106 47.808Z" fill="white"/>
<path d="M18.1106 44.641H12.8146C12.7343 44.641 12.6694 44.5753 12.6694 44.494C12.6694 44.4127 12.7343 44.3469 12.8146 44.3469H18.1106C18.1909 44.3469 18.2558 44.4127 18.2558 44.494C18.2558 44.5753 18.1909 44.641 18.1106 44.641Z" fill="white"/>
<path d="M18.1107 43.1741H14.539C14.4587 43.1741 14.3938 43.1084 14.3938 43.0271C14.3938 42.9457 14.4587 42.88 14.539 42.88H18.1107C18.191 42.88 18.2559 42.9457 18.2559 43.0271C18.2559 43.1084 18.191 43.1741 18.1107 43.1741Z" fill="white"/>
</g>
<path d="M39.8081 20.9373C39.8039 20.9354 39.7928 20.9352 39.7956 20.9315C41.5747 18.5291 39.3479 15.3397 37.408 15.1427C36.7468 14.3084 35.8603 13.6339 34.7828 13.2302C34.2124 13.0166 33.6263 12.8988 33.0424 12.8669C33.0318 11.3797 31.839 10.1774 30.368 10.1774C28.8904 10.1774 27.6927 11.3903 27.6927 12.8866C27.6927 13.5824 27.9539 14.2149 28.3798 14.6947C27.949 15.1369 27.5791 15.6501 27.2927 16.2281C27.2251 16.3647 27.1648 16.5029 27.108 16.6417C24.9374 16.5676 23.0724 18.2322 22.9009 20.4469C22.7796 22.0134 23.5369 23.4442 24.7534 24.243C24.015 24.6373 23.5477 25.1803 23.499 25.8091C23.4424 26.5407 23.9641 27.247 24.8489 27.7935C24.6657 28.1674 24.5634 28.5802 24.5634 29.0144C24.5634 30.6983 26.0915 32.0634 27.9764 32.0634C29.2504 32.0634 30.3607 31.4393 30.9469 30.5151C31.3541 30.7831 31.804 31.0302 32.2902 31.2445C34.8018 32.3514 37.2989 32.1756 37.8677 30.852C38.0216 30.4938 38.0174 30.0881 37.8812 29.6652C38.0324 29.6394 38.1808 29.6047 38.3254 29.558C43.4007 27.9166 44.0852 22.8987 39.8081 20.9373Z" fill="#233863"/>
<path d="M40.7633 42.8632L40.424 41.8935L42.97 40.4233L43.0502 40.377V40.1251C43.0502 35.387 40.0435 31.546 36.3346 31.546H32.3972L32.4481 31.641L25.5042 31.6978C23.7729 31.7119 22.3054 32.9713 21.7341 34.7321L16.843 45.7876L17.5469 45.8748L21.5583 46.3719L21.6489 57.6099L38.8472 57.6145L39.415 48.4437L40.0615 47.3742L40.3732 46.8586C41.0801 45.6891 41.2269 44.187 40.7633 42.8632Z" fill="#444CE7"/>
<path d="M26.3805 47.0195L22.3074 46.5384C22.2676 46.5337 22.239 46.4973 22.2437 46.4568C22.2483 46.4164 22.2853 46.3887 22.3243 46.3923L26.2686 46.858L27.3885 41.9638C27.3976 41.9244 27.4365 41.8997 27.4757 41.9088C27.5148 41.918 27.5392 41.9575 27.53 41.9972L26.3805 47.0195Z" fill="#374081"/>
<path d="M30.6318 36.491C28.2567 36.491 26.3245 34.5344 26.3245 32.1292V31.637C26.3245 31.578 26.3715 31.5304 26.4297 31.5304C26.488 31.5304 26.535 31.578 26.535 31.637V32.1292C26.535 34.4167 28.3729 36.2778 30.6318 36.2778C32.8908 36.2778 34.7285 34.4167 34.7285 32.1292V31.637C34.7285 31.578 34.7755 31.5304 34.8337 31.5304C34.892 31.5304 34.939 31.578 34.939 31.637V32.1292C34.9389 34.5344 33.0068 36.491 30.6318 36.491Z" fill="#233863"/>
<path d="M27.7565 34.1172C27.7228 34.1172 27.6897 34.1007 27.6694 34.0704C27.2685 33.471 27.0566 32.7702 27.0566 32.0434V31.637C27.0566 31.578 27.1037 31.5304 27.1619 31.5304C27.22 31.5304 27.2672 31.578 27.2672 31.637V32.0434C27.2672 32.7272 27.4666 33.3871 27.8438 33.951C27.8765 33.9997 27.8637 34.0658 27.8156 34.0989C27.7975 34.1113 27.7768 34.1172 27.7565 34.1172Z" fill="#233863"/>
<path d="M30.6318 35.6635C29.8128 35.6635 29.0425 35.3909 28.4042 34.875C28.3587 34.8384 28.3512 34.7714 28.3875 34.7253C28.4241 34.6792 28.4903 34.6723 28.5353 34.7084C29.1361 35.1937 29.8611 35.4503 30.6318 35.4503C31.4014 35.4503 32.1256 35.1943 32.7262 34.7101C32.7714 34.673 32.838 34.6809 32.874 34.727C32.9105 34.773 32.9028 34.8399 32.8573 34.8767C32.2193 35.3915 31.4496 35.6635 30.6318 35.6635Z" fill="#233863"/>
<path d="M33.6509 33.8828C33.6332 33.8828 33.6153 33.8784 33.5989 33.8688C33.5484 33.8398 33.5307 33.7747 33.5594 33.7235C33.8451 33.2138 33.9961 32.633 33.9961 32.0434V31.637C33.9961 31.578 34.0432 31.5304 34.1014 31.5304C34.1597 31.5304 34.2067 31.578 34.2067 31.637V32.0434C34.2067 32.6699 34.0463 33.2871 33.7424 33.8288C33.7231 33.8634 33.6875 33.8828 33.6509 33.8828Z" fill="#233863"/>
<path d="M40.8726 60.5864L38.1599 56.4554C37.5413 55.6522 37.1853 54.6785 36.4643 54.4796L35.9784 54.3544L35.9815 54.3466L23.8147 51.2849L24.8184 46.7757L17.5469 45.8748L15.3013 53.3753C15.1547 54.0219 15.1618 54.6679 15.2981 55.2742C15.6478 57.1688 17.2706 58.6651 19.3027 58.7011L32.1311 58.6686C33.4635 60.0813 37.6294 62.9738 37.6294 62.9738C37.8256 63.1468 38.1259 63.1258 38.2967 62.9269C38.4082 62.7971 38.4365 62.6228 38.3892 62.4689C38.4105 62.4649 38.4233 62.4622 38.4233 62.4622C38.4366 62.4661 38.4477 62.4677 38.4607 62.4712L38.6386 62.6461C38.8451 62.8491 39.1782 62.8441 39.3786 62.6349L39.3914 62.6217C39.4813 62.5278 39.5276 62.408 39.5353 62.2864L39.5391 62.2903C39.7404 62.4987 40.0734 62.5025 40.2793 62.2987L40.2923 62.2858C40.4981 62.082 40.5019 61.7448 40.3006 61.5363L40.2505 61.4843C40.2435 61.4654 40.2363 61.4469 40.2289 61.4288C40.4264 61.5414 40.6818 61.517 40.8516 61.3488L40.8646 61.3358C41.0701 61.1322 41.0739 60.7948 40.8726 60.5864Z" fill="#FFBA94"/>
<path d="M40.2694 61.5073C40.2506 61.5073 40.2317 61.5 40.2176 61.4853L38.6039 59.8142C38.5759 59.7852 38.5765 59.7386 38.6051 59.7102C38.634 59.6821 38.68 59.6823 38.7078 59.7114L40.3214 61.3825C40.3495 61.4115 40.349 61.4581 40.3203 61.4864C40.306 61.5003 40.2877 61.5073 40.2694 61.5073Z" fill="#FB8E77"/>
<path d="M39.4123 62.1627C39.3934 62.1627 39.3745 62.1553 39.3604 62.1406L37.7467 60.4695C37.7187 60.4405 37.7193 60.3939 37.7479 60.3655C37.7768 60.3375 37.8228 60.3377 37.8506 60.3667L39.4643 62.0378C39.4923 62.0668 39.4917 62.1134 39.4631 62.1418C39.4489 62.1556 39.4306 62.1627 39.4123 62.1627Z" fill="#FB8E77"/>
<path d="M38.3934 62.5045C38.3752 62.5045 38.3571 62.4976 38.343 62.4839L36.6802 60.8628C36.6513 60.8347 36.6505 60.7881 36.6782 60.7588C36.7062 60.7297 36.7523 60.729 36.7809 60.7568L38.4436 62.3779C38.4725 62.406 38.4734 62.4526 38.4457 62.4818C38.4313 62.4968 38.4124 62.5045 38.3934 62.5045Z" fill="#FB8E77"/>
<path d="M25.0327 51.6649C25.0253 51.6649 25.0178 51.6638 25.0105 51.6614L21.2659 50.4428C21.2277 50.4304 21.2068 50.3891 21.2191 50.3503C21.2312 50.3116 21.2724 50.2904 21.3105 50.3029L25.0551 51.5216C25.0933 51.5339 25.1142 51.5752 25.1019 51.6141C25.092 51.6451 25.0635 51.6649 25.0327 51.6649Z" fill="#FB8E77"/>
<path d="M34.1214 18.8882C33.4065 18.9969 32.7285 19.6662 32.1853 20.4017C32.1012 20.5154 32.0093 20.6195 31.9107 20.7138C31.1833 21.4087 30.1273 21.4767 29.3054 21.0215L29.1053 20.9855C28.2138 20.8246 27.3626 21.4261 27.2037 22.3288L27.1983 22.3596C27.0394 23.2623 27.6334 24.1244 28.5248 24.2852L28.928 24.358L28.8218 24.9614C28.7579 25.3249 28.7406 25.6859 28.7649 26.0382L27.8284 31.3613C27.5573 32.9022 28.571 34.3739 30.0927 34.6485C31.6144 34.923 33.0677 33.8964 33.3389 32.3555L33.7129 30.2295C35.7788 30.2385 37.6138 28.7452 37.9885 26.6151L38.0602 26.2072L38.9494 21.1534C37.9485 21.0283 34.4072 20.4746 34.1214 18.8882Z" fill="#FFBA94"/>
<path opacity="0.46" d="M33.0387 29.7543L32.9584 29.7398C30.792 29.349 29.291 27.3892 29.3928 25.2211C29.4095 24.8662 29.2345 24.5305 28.9278 24.358L28.8217 24.9614C28.5875 26.2929 28.9739 27.5908 29.7705 28.5514L33.2978 32.6182L33.7114 30.2675L33.6244 30.2295C35.7261 30.2823 37.6083 28.7755 37.9884 26.6151L38.0601 26.2072C37.6407 28.5909 35.3925 30.1789 33.0387 29.7543Z" fill="#FB8E77"/>
<path d="M33.7111 28.6063C33.692 28.6063 33.6727 28.5986 33.6586 28.5834C33.6311 28.554 33.6321 28.5075 33.6612 28.4796C33.6653 28.4756 34.0774 28.087 34.5622 28.345C34.5976 28.3639 34.6114 28.4084 34.5927 28.4443C34.5741 28.4805 34.53 28.494 34.4947 28.4752C34.1028 28.2667 33.7749 28.5731 33.7611 28.5862C33.747 28.5996 33.7292 28.6063 33.7111 28.6063Z" fill="#FB8E77"/>
<path d="M34.8839 23.7668C34.8578 23.9157 34.7172 24.015 34.5701 23.9884C34.4229 23.9619 34.3249 23.8196 34.3512 23.6706C34.3775 23.5216 34.5179 23.4224 34.665 23.449C34.812 23.4756 34.91 23.6178 34.8839 23.7668Z" fill="#233863"/>
<path d="M38.0856 24.3443C38.0593 24.4933 37.9188 24.5925 37.7717 24.5659C37.6246 24.5395 37.5266 24.3971 37.5528 24.2481C37.579 24.0992 37.7196 23.9999 37.8667 24.0265C38.0137 24.0531 38.1117 24.1953 38.0856 24.3443Z" fill="#233863"/>
<path d="M35.4851 25.8392C35.3527 25.8392 35.1976 25.8151 35.0165 25.7548C34.9783 25.7422 34.9576 25.7006 34.9703 25.662C34.9829 25.6234 35.0239 25.6025 35.0619 25.6151C35.6725 25.8188 35.9336 25.5648 36.0172 25.4462C36.0325 25.4245 36.0386 25.3978 36.0347 25.3709L35.723 23.2989C35.7169 23.2587 35.7442 23.2213 35.7839 23.2152C35.8228 23.209 35.8605 23.2365 35.8665 23.2768L36.1782 25.349C36.1879 25.4138 36.1728 25.4787 36.1355 25.5316C36.0595 25.6392 35.8668 25.8392 35.4851 25.8392Z" fill="#FB8E77"/>
<path d="M33.4273 27.4294L32.8666 27.1016C32.1719 26.6956 31.9339 25.7962 32.335 25.0929L32.3764 25.0204L34.5075 26.2662L33.9205 27.2957C33.8207 27.4704 33.6 27.5303 33.4273 27.4294Z" fill="white"/>
<path d="M33.7625 25.0751C32.8282 25.0751 32.0678 24.306 32.0667 23.3598C32.0656 22.4129 32.8257 21.6417 33.7607 21.6407C33.7613 21.6407 33.762 21.6407 33.7626 21.6407C34.2148 21.6407 34.6401 21.8188 34.9603 22.1425C35.281 22.4666 35.4578 22.8976 35.4583 23.3562C35.4593 24.3031 34.6992 25.0743 33.7644 25.0751C33.7638 25.0751 33.763 25.0751 33.7625 25.0751ZM32.3571 23.3595C32.358 24.1437 32.9883 24.781 33.7625 24.781C33.763 24.781 33.7635 24.781 33.7641 24.781C34.5389 24.7803 35.1686 24.1412 35.1679 23.3564C35.1674 22.9763 35.0209 22.6191 34.7552 22.3505C34.4898 22.0825 34.1374 21.9348 33.7626 21.9348C33.762 21.9348 33.7616 21.9348 33.761 21.9348C32.9862 21.9357 32.3564 22.5746 32.3571 23.3595Z" fill="white"/>
<path d="M37.6184 25.8353C36.6843 25.8353 35.9238 25.0662 35.9226 24.1199C35.9216 23.173 36.6816 22.4019 37.6165 22.401C37.6171 22.401 37.6178 22.401 37.6184 22.401C38.5527 22.401 39.3131 23.1701 39.3142 24.1164C39.3153 25.0632 38.5552 25.8344 37.6202 25.8354C37.6194 25.8353 37.619 25.8353 37.6184 25.8353ZM36.213 24.1195C36.2139 24.9037 36.8443 25.541 37.6184 25.541C37.619 25.541 37.6193 25.541 37.6199 25.541C38.3947 25.5401 39.0245 24.901 39.0238 24.1164C39.0229 23.3321 38.3926 22.6948 37.6184 22.6948C37.6178 22.6948 37.6174 22.6948 37.6168 22.6948C36.842 22.6957 36.2123 23.3348 36.213 24.1195Z" fill="white"/>
<path d="M36.0238 23.9269C36.0191 23.9269 36.0145 23.9268 36.0096 23.9262L35.4055 23.8666C35.3257 23.8589 35.2673 23.7868 35.2751 23.7061C35.2828 23.6252 35.3531 23.5652 35.4337 23.574L36.0377 23.6336C36.1176 23.6414 36.176 23.7134 36.1682 23.7941C36.161 23.87 36.0977 23.9269 36.0238 23.9269Z" fill="white"/>
<path d="M33.5393 21.0697C33.6318 21.1043 33.7483 21.0865 33.8617 21.0759C33.9758 21.0628 34.0906 21.0524 34.1907 21.0471C34.2911 21.0416 34.4064 21.0393 34.5213 21.04C34.6353 21.0382 34.7535 21.0431 34.8405 20.9987C34.9246 20.9571 34.954 20.8496 34.8451 20.7255C34.7427 20.6043 34.4851 20.4806 34.1531 20.4978C33.8215 20.5168 33.5826 20.6677 33.4975 20.799C33.4066 20.9341 33.4503 21.0375 33.5393 21.0697Z" fill="#233863"/>
<path d="M38.541 21.9323C38.4424 21.931 38.34 21.872 38.2379 21.8209C38.1361 21.767 38.0325 21.7157 37.941 21.6742C37.8494 21.6326 37.7425 21.5885 37.6352 21.5473C37.5294 21.5041 37.4173 21.4657 37.3518 21.3928C37.2881 21.3234 37.2988 21.2124 37.4445 21.136C37.583 21.0602 37.8674 21.0385 38.1711 21.1754C38.4737 21.3137 38.6432 21.5413 38.676 21.695C38.7131 21.8541 38.6355 21.9348 38.541 21.9323Z" fill="#233863"/>
<path d="M28.2188 23.1095C28.1864 23.1095 28.1569 23.0874 28.1485 23.0542C28.1386 23.0147 28.162 22.9748 28.2008 22.9646L28.7182 22.8299L28.4833 21.9516C28.4728 21.9123 28.4956 21.872 28.5342 21.8614C28.5736 21.8502 28.6128 21.8739 28.6233 21.9132L28.8969 22.9355L28.2367 23.1072C28.2309 23.1087 28.2248 23.1095 28.2188 23.1095Z" fill="#FB8E77"/>
<path d="M46.6828 37.743H42.6814C42.2898 37.743 41.9722 37.4215 41.9722 37.0249V29.2373C41.9722 28.8407 42.2896 28.5193 42.6814 28.5193H46.6828C47.0744 28.5193 47.3919 28.8407 47.3919 29.2373V37.0249C47.392 37.4214 47.0744 37.743 46.6828 37.743Z" fill="#233863"/>
<path d="M50.1103 44.5427L49.6652 36.3682L49.7708 35.3763C49.9184 33.9887 49.5145 32.6014 48.6571 31.5088C48.5755 31.4048 48.4949 31.3015 48.4149 31.2037V29.8697C48.4149 29.5786 48.1818 29.3426 47.8943 29.3426C47.6169 29.3426 47.3921 29.5702 47.3921 29.8511V30.3574C47.3921 31.3201 46.6222 32.1008 45.6715 32.1022L44.1687 32.1042L41.9197 31.9097C41.6273 31.8844 41.3675 32.106 41.3425 32.4023C41.322 32.6454 41.467 32.8639 41.681 32.9492C41.6613 32.9552 41.6414 32.9617 41.6212 32.9689L41.5586 32.9634C41.2661 32.9381 41.0063 33.1598 40.9814 33.4561C40.9564 33.7522 41.1752 34.0153 41.4677 34.0406L41.469 34.0408C41.3775 34.1259 41.3132 34.2418 41.2984 34.3759C41.2658 34.6713 41.4778 34.9401 41.7696 34.9731L42.0057 34.9998C42.0166 35.0078 42.0266 35.0156 42.0381 35.0236C42.0381 35.0236 42.0442 35.0354 42.0548 35.0547C41.9071 35.1154 41.7918 35.2488 41.7638 35.4189C41.7208 35.6794 41.8959 35.928 42.1531 35.9716C42.1531 35.9716 43.8069 36.523 44.521 36.7268L43.9163 39.8977L43.7873 40.5739L42.9699 40.4231L40.4239 41.8934L40.7632 42.863C41.2266 44.1868 41.08 45.6891 40.3729 46.8586L40.0613 47.3742L41.305 47.8915C42.8752 48.5446 45.147 49.2238 46.8296 48.8194C47.3755 48.6882 47.7986 48.5296 48.1275 48.3421C49.3392 47.7014 50.1817 46.2391 50.1103 44.5427Z" fill="#FFBA94"/>
<path d="M43.9531 33.1947C43.9509 33.1947 43.9489 33.1945 43.9467 33.1944L41.6416 32.9951C41.6018 32.9917 41.572 32.956 41.5755 32.9157C41.5788 32.8753 41.6158 32.8454 41.654 32.8487L43.9592 33.0479C43.999 33.0513 44.0286 33.087 44.0253 33.1273C44.0219 33.1657 43.9904 33.1947 43.9531 33.1947Z" fill="#FB8E77"/>
<path d="M43.9985 34.2835C43.9963 34.2835 43.9943 34.2834 43.9921 34.2832L41.687 34.084C41.6472 34.0806 41.6174 34.0449 41.6209 34.0046C41.6242 33.9641 41.6605 33.934 41.6995 33.9375L44.0046 34.1368C44.0444 34.1401 44.074 34.1759 44.0707 34.2162C44.0675 34.2546 44.0358 34.2835 43.9985 34.2835Z" fill="#FB8E77"/>
<path d="M44.3795 35.3701C44.3766 35.3701 44.3739 35.3699 44.371 35.3697L42.0728 35.1C42.033 35.0953 42.0044 35.0588 42.009 35.0185C42.0137 34.9781 42.051 34.9494 42.0896 34.9539L44.3878 35.2236C44.4276 35.2283 44.4562 35.2648 44.4516 35.3051C44.4472 35.3426 44.4158 35.3701 44.3795 35.3701Z" fill="#FB8E77"/>
<path d="M42.8458 44.4915C42.8404 44.4915 42.8347 44.4909 42.8291 44.4894C42.79 44.48 42.7659 44.4406 42.7752 44.4009L43.9276 39.4526C43.9368 39.4133 43.9747 39.388 44.015 39.398C44.054 39.4074 44.0781 39.4469 44.0689 39.4866L42.9164 44.4349C42.9085 44.4687 42.8787 44.4915 42.8458 44.4915Z" fill="#FB8E77"/>
<path d="M40.3895 41.9978L38.9217 38.5578C38.9059 38.5206 38.9227 38.4772 38.9596 38.4612C38.9962 38.4449 39.039 38.4621 39.055 38.4996L40.4585 41.7887L43.0143 40.3129C43.049 40.2932 43.0934 40.3051 43.1135 40.3404C43.1334 40.3757 43.1212 40.4207 43.0865 40.4408L40.3895 41.9978Z" fill="#374081"/>
</svg>
